<svg xmlns="http://www.w3.org/2000/svg" width="94.994" height="92" viewBox="0 0 94.994 92">
  <g id="nc" transform="translate(-108 -85.5)">
    <line id="Line_1" data-name="Line 1" x2="10" y2="26" transform="translate(118.5 125.5)" fill="none" stroke="#707070" stroke-width="1"/>
    <line id="Line_2" data-name="Line 2" x1="8" y2="49" transform="translate(128.5 102.5)" fill="none" stroke="#707070" stroke-width="1"/>
    <line id="Line_4" data-name="Line 4" x1="11" y1="62" transform="translate(136.5 102.5)" fill="none" stroke="#707070" stroke-width="1"/>
    <line id="Line_5" data-name="Line 5" y1="46" x2="11" transform="translate(147.5 118.5)" fill="none" stroke="#707070" stroke-width="1"/>
    <line id="Line_6" data-name="Line 6" x2="5" y2="20" transform="translate(158.5 118.5)" fill="none" stroke="#707070" stroke-width="1"/>
    <line id="Line_7" data-name="Line 7" y2="92" transform="translate(163.5 85.5)" fill="none" stroke="#000" stroke-width="3"/>
    <circle id="Ellipse_1" data-name="Ellipse 1" cx="3" cy="3" r="3" transform="translate(108 142)"/>
    <circle id="Ellipse_2" data-name="Ellipse 2" cx="3" cy="3" r="3" transform="translate(119 112)"/>
    <circle id="Ellipse_3" data-name="Ellipse 3" cx="3" cy="3" r="3" transform="translate(126 165)"/>
    <circle id="Ellipse_4" data-name="Ellipse 4" cx="3" cy="3" r="3" transform="translate(151 152)"/>
    <circle id="Ellipse_5" data-name="Ellipse 5" cx="3" cy="3" r="3" transform="translate(145 128)"/>
    <circle id="Ellipse_6" data-name="Ellipse 6" cx="3" cy="3" r="3" transform="translate(142 96)"/>
    <line id="Line_8" data-name="Line 8" x2="7" y2="25" transform="translate(163.5 133.5)" fill="none" stroke="#000" stroke-width="1"/>
    <line id="Line_9" data-name="Line 9" y1="46" x2="8" transform="translate(170.5 112.5)" fill="none" stroke="#000" stroke-width="1"/>
    <line id="Line_10" data-name="Line 10" x2="6" y2="53" transform="translate(178.5 112.5)" fill="none" stroke="#000" stroke-width="1"/>
    <line id="Line_11" data-name="Line 11" y1="62" x2="12" transform="translate(184.5 102.5)" fill="none" stroke="#000" stroke-width="1"/>
    <line id="Line_12" data-name="Line 12" x2="6" y2="37" transform="translate(196.5 102.5)" fill="none" stroke="#000" stroke-width="1"/>
  </g>
</svg>
